<?xml version="1.0" encoding="utf-8"?>
<!-- Generator: Adobe Illustrator 23.1.0, SVG Export Plug-In . SVG Version: 6.00 Build 0)  -->
<svg version="1.1" id="Layer_1" xmlns="http://www.w3.org/2000/svg" xmlns:xlink="http://www.w3.org/1999/xlink" x="0px" y="0px"
	 viewBox="0 0 1200 1600" style="enable-background:new 0 0 1200 1600;" xml:space="preserve">
<style type="text/css">
	.st0{fill:#FFFFFF;}
	.st1{fill:#34424D;}
	.st2{fill:#1C39BB;}
	.st3{fill:#34424D;stroke:#34424D;stroke-miterlimit:10;}
</style>
<g>
	<g>
		<path class="st0" d="M1090,1312c-363.3,0-726.5,0-1090,0C0,970.6,0,629.4,0,288c363.3,0,726.5,0,1090,0
			C1090,629.2,1090,970.6,1090,1312z M611.1,883.8c0-0.2,0.2-0.5,0.2-0.7c-0.8-0.2-1.4-0.4-2.2-0.4c-48.2,0-96.4,0-144.6,0.2
			c-2.5,0-5.5,2-7.4,4.4c-31.9,37.9-78.6,47.7-117.7,24.5c-39.9-23.8-62.9-74.1-57-127.6c5.6-49.7,28.6-84.6,67.6-101.5
			c38.8-16.7,74.2-6.5,104.7,27c3.3,3.4,6.3,5.3,10.5,5.3c39.6-0.2,79.2-0.2,118.8,0c9.4,0,18.6,0,28,0c0-0.4,0-0.7,0-0.9
			c-32.1-5.4-64.2-10.9-95.8-16.2c-0.9-3.4-1.1-6.9-2.5-9.3c-9.7-17.1-21.4-31.9-34.9-44.8c-3.1-2.9-5.2-2.5-7.8,0.7
			c-3.9,4.9-8.1,9.3-12,14c-2.5,3.1-4.2,3.4-7.8,1.3c-10.8-6.4-21.9-12.2-33-17.6c-3-1.5-4.2-3.1-4.1-7.1c0.3-6.5,0.2-13.1,0.6-19.4
			c0.5-5.8-1.1-8.3-5.9-9.3c-16.6-3.1-33-3.8-49.8-1.3c-3.9,0.5-5.3,2.5-5.5,7.1c0,7.3,0,14.3-0.5,21.6c-0.2,2-1.4,5.1-2.8,5.6
			c-13,5.8-26.1,11.3-40.2,17.2c-4.1-5.1-9.1-11.4-14.1-18c-2.3-3.1-4.4-3.6-7.4-1.1c-14.2,12-26.6,26.5-37.2,43
			c-2.2,3.3-2.3,6,0.3,9.1c4.4,5.3,8.6,10.5,12.5,16.2c1.1,1.6,1.4,5.1,0.8,6.9c-4.9,13.8-10.2,27.4-14.9,41.2
			c-1.3,3.4-2.3,4.7-5.3,4.5c-6.1-0.4-12.2-0.2-18.3-0.5c-3.3-0.2-4.9,1.3-5.3,5.3c-3,20.7-3.4,41.4-1.4,62.3c0.5,4.9,2.3,6.2,5.9,6
			c5.8,0,11.4,0.7,17.2,0.5c3.3,0,4.4,1.5,5.5,5.3c4.2,14.2,8.9,28,13.1,42.1c0.5,1.8,0.2,4.9-0.8,6.4c-4.1,5.3-8.3,10.2-12.8,14.9
			c-3.3,3.4-3.6,6.2-1.1,10.5c10,16.9,21.6,31.8,35.2,44.6c3,2.9,4.9,2.2,7.4-0.7c4.4-5.3,8.8-10.5,13.5-15.2
			c1.3-1.3,4.1-1.6,5.8-0.7c11.4,5.8,22.5,12.3,34,18c2.8,1.5,3.9,2.7,3.8,6.4c-0.3,6.7,0,13.4-0.6,20.1c-0.6,6,1.6,8.2,6.1,9.1
			c16.4,3.1,32.7,3.8,49.1,1.3c3.9-0.5,5.8-2.4,5.6-7.4c-0.2-6.9,0.3-14,0.2-20.9c0-4,1.3-5.4,4.4-6.7c11.4-4.9,22.8-10.2,34.1-15.8
			c2.8-1.5,4.4-1.6,6.4,1.3c3.8,5.3,8,10,11.7,15.2c2.8,4,5.3,4.9,8.6,1.1c11-12.2,22.2-24,32.7-36.8c7.4-8.9,6.7-9.6,0-19.2
			c-0.3-0.5-0.3-1.3-0.6-2c0.6-0.4,1.1-0.7,1.6-0.9C541.5,895.8,576.2,889.8,611.1,883.8z"/>
		<g>
			<path class="st1" d="M611.6,883.9c-34.7,6-69.6,12.2-104.4,18.1c-0.5,0.2-1.1,0.5-1.6,0.9c0.2,0.7,0.3,1.5,0.6,2
				c6.9,9.8,7.4,10.3,0,19.2c-10.5,12.7-21.8,24.5-32.7,36.8c-3.3,3.8-5.8,2.7-8.6-1.1c-3.8-5.3-8-10-11.7-15.2
				c-2-2.7-3.6-2.5-6.4-1.3c-11.3,5.6-22.7,10.9-34.1,15.8c-3,1.3-4.4,2.7-4.4,6.7c0.2,6.9-0.3,14-0.2,20.9c0.2,5.1-1.7,6.9-5.6,7.4
				c-16.4,2.4-32.9,1.8-49.1-1.3c-4.5-0.9-6.7-3.1-6.1-9.1c0.6-6.7,0.3-13.4,0.6-20.1c0.2-3.6-1.1-5.1-3.8-6.4
				c-11.4-5.8-22.7-12.2-34-18c-1.6-0.7-4.4-0.5-5.8,0.7c-4.7,4.7-9.1,10-13.5,15.2c-2.5,2.9-4.4,3.6-7.4,0.7
				c-13.5-12.9-25.2-27.8-35.2-44.6c-2.5-4.4-2.2-7.1,1.1-10.5c4.5-4.5,8.8-9.6,12.8-14.9c1.1-1.3,1.4-4.5,0.8-6.4
				c-4.2-14.2-9.1-28-13.1-42.1c-1.1-3.6-2.2-5.3-5.5-5.3c-5.8,0-11.4-0.5-17.2-0.5c-3.6,0-5.5-1.3-5.9-6
				c-2.2-20.9-1.7-41.6,1.4-62.3c0.6-4,2.2-5.4,5.3-5.3c6.1,0.2,12.2,0.2,18.3,0.5c3,0.2,4.1-1.1,5.3-4.5
				c4.7-13.8,10.2-27.4,14.9-41.2c0.6-2,0.3-5.4-0.8-6.9c-3.9-5.6-8.1-11.1-12.5-16.2c-2.7-3.1-2.5-5.6-0.3-9.1
				c10.6-16.5,23-30.9,37.2-43c3-2.5,5-2,7.4,1.1c4.9,6.5,10,12.7,14.1,18c13.9-6,27.1-11.4,40.2-17.2c1.4-0.5,2.7-3.6,2.8-5.6
				c0.5-7.1,0.5-14.3,0.5-21.6c0-4.5,1.6-6.5,5.5-7.1c16.6-2.4,33.2-1.8,49.8,1.3c4.9,0.9,6.4,3.6,5.9,9.3
				c-0.5,6.5-0.3,12.9-0.6,19.4c-0.2,3.8,0.9,5.4,4.1,7.1c11.1,5.4,22.2,11.3,33,17.6c3.4,2,5.3,1.6,7.8-1.3c3.9-4.9,8.1-9.3,12-14
				c2.7-3.3,4.7-3.6,7.8-0.7c13.6,12.7,25.2,27.6,34.9,44.8c1.4,2.4,1.6,5.8,2.5,9.3c31.5,5.3,63.7,10.7,95.8,16.2
				c1.9,0.4,3.8,0.7,5.6,0.9c-11.3,0-22.5,0-33.8,0c-39.6,0-79.2,0-118.8,0c-4.4,0-7.4-1.6-10.5-5.3c-30.5-33.6-65.9-43.7-104.7-27
				c-39.1,16.7-62,51.5-67.6,101.5c-6.1,53.4,16.9,103.6,57,127.6c39.1,23.2,85.8,13.6,117.7-24.5c1.9-2.2,4.9-4.2,7.4-4.4
				c48.2-0.2,96.4-0.2,144.6-0.2c0.8,0,1.4,0.2,2.2,0.4C611.8,883.4,611.6,883.6,611.6,883.9z"/>
		</g>
	</g>
	<g>
		<g>
			<g>
				<g>
					<path class="st2" d="M423.8,905.3c0-14.5-0.2-28.1,0.2-41.6c0-4,2.1-6.9,5.2-6.9c12.8-0.2,25.5-0.2,39.3-0.2
						C457.5,878.8,442.9,894.4,423.8,905.3z"/>
				</g>
				<path class="st2" d="M480,792.4c-0.1,7.3-0.3,14-0.8,20.7c-0.2,0.9-1.7,2.2-2.9,2.4c-3,0.4-6,0.2-9,0.5h-85.9
					c-6.5-0.3-12.8,0.8-16.5,8.2c-1.7,3.6-3,8.3-3.3,12.7c-0.5,8.9,0,17.8-0.3,26.7c-0.2,2-1.1,4.4-2.4,5.6
					c-6.5,6.4-7.8,17.2-2.4,24.5s14.3,7.6,20,0.5s5.1-18.1-1.6-24.3c-2.2-2-2.9-4.2-2.9-7.3c0.2-8.3,0-16.7,0.2-25
					c0.2-6.4,7.1-8.6,7.1-8.6H473c1,0,1.9,0.4,3.8,0.5c-1.1,4.5-2.1,8.7-3.6,12.5c-0.5,1.1-2.9,1.6-4.3,1.6
					c-12.5,0.2-25.1,0.2-37.7,0.2c-12.5,0-19.5,8.3-19.5,23.6c-0.2,13.1-0.2,26.1,0,39.2c0,2.9-0.6,4.5-3.2,5.3
					c-44.2,14-89.4-11.6-109.4-59.3c-0.2-0.2-0.2-0.4-0.2-1.3c1.4-0.2,2.9-0.4,4.3-0.4c8.2,0,16.5-0.2,24.7,0.2
					c1.7,0.2,4,1.5,5.1,3.1c5.5,7.8,14.3,8.9,20.1,2.4c5.7-6.4,5.7-17.6-0.2-24.1c-6-6.7-14.6-5.6-20.1,2.4
					c-1.1,1.6-3.3,3.1-5.1,3.1c-10.1,0.4-20.3,0.2-30.4,0c-1.3,0-3.3-0.9-4-2.2c-3.3-7.3-5.9-33.6-4.3-42.8h84c0,0,19.8-8.1,19.8-24
					c0-12.7,0.2-25.4,0-38.1c0-3.1,0.5-5.3,2.9-7.3c6.7-6.2,7.3-17.2,1.7-24.3c-5.4-6.9-14.1-6.9-19.5-0.2c-5.5,6.9-5.2,17.8,1.3,24
					c2.4,2.4,3.2,4.7,3,8.3c-0.2,12.9,0,25.8-0.2,38.7c0,7.4-8.1,9.9-8.1,9.9h-80c-1.4,0-2.9-0.2-5.2-0.2c2.5-9.5,4.9-18,7.1-26.6
					c1-3.4,2.5-4.3,5.4-4.3c11.4,0.2,23,0.2,34.6,0.2c13.8,0,20.3-8,20.5-25.2c0.2-10.7,0.2-21.6,0-32.3c0-3.2,0.5-5.2,3.3-5.9
					c27.4-8.2,53.1-3.2,76.9,15.7c0.5,0.4,0.8,0.9,1.3,1.6c-10.3-0.7-15.9,3-17.9,12.5c-1.6,7.5,0.5,13,4.9,17.8
					c1.3,1.5,2.4,4.1,2.5,6.3c0.3,9.8,0.2,19.6,0.2,29.5c0,16.4,6.8,24.8,19.8,24.8H480V792.4z"/>
				<g>
					<path class="st2" d="M479.6,778.9c-11.7,0-22.5,0.2-33.5,0c-4.3,0-6.3-3.1-6.3-8c-0.2-11.1-0.2-22.1,0.2-33
						c0-1.5,0.8-3.1,1.6-4c7.9-8.5,8.6-15.8,1.6-27.6C463.1,725.8,475,749.2,479.6,778.9z"/>
				</g>
				<g>
					<path class="st2" d="M344.8,839.2c1.3,2,3,3.4,2.9,4.7c-0.2,1.3-1.6,2.9-2.9,3.3c-0.6,0.2-2.5-1.8-2.5-2.9
						C342.4,842.8,343.7,841.4,344.8,839.2z"/>
				</g>
				<g>
					<g>
						<path class="st2" d="M305.2,735.4c11.1-19.6,24.4-33.4,41.9-42.8c0,12.3,0.2,23.8-0.2,35.4c-0.2,4.5-2.7,7.4-6.5,7.4
							C329.1,735.6,317.7,735.4,305.2,735.4z"/>
					</g>
				</g>
				<g>
					<path class="st2" d="M438.3,720c-1.9,1.5-3.2,3.1-4.1,2.9c-1-0.2-2.2-2.2-2.2-3.6c-0.2-0.7,1.7-2.7,2.5-2.5
						C435.5,716.7,436.6,718.3,438.3,720z"/>
				</g>
				<g>
					<path class="st2" d="M367.8,877.9c1.1,2,2.5,3.6,2.4,4.5c-0.3,1.3-1.7,2.9-2.9,3.1c-0.6,0.2-2.4-2-2.4-2.9
						C365.1,881.1,366.5,879.9,367.8,877.9z"/>
				</g>
				<g>
					<path class="st2" d="M388.7,705.1c1.3,2,2.9,3.3,2.7,4.2c-0.2,1.3-1.4,2.9-2.5,3.3c-0.8,0.2-2.5-1.6-2.5-2.5
						C386.2,708.7,387.4,707.3,388.7,705.1z"/>
				</g>
			</g>
		</g>
		<g>
			<path d="M542.6,830H539v1.3c0.2,8.3-2,15.4-6.4,21.1l-5.8-7.1c3.1-4,4.5-9.3,4.5-15.6c-6.1,0-11.4-3.1-15.6-9.3
				c-4.4-6.2-6.4-13.4-6.4-22c0-8.5,2.2-16,6.6-22.1c4.4-6.2,9.7-9.3,16-9.3h8.1v52h3v11L542.6,830L542.6,830z M531,819.4v-41.6
				c-3.8,0-7,2.2-10,6.5c-3,4.4-4.4,9.1-4.4,14.3c0,5.6,1.4,10.5,4.1,14.5C523.5,817.2,526.9,819.4,531,819.4z"/>
			<path d="M572.7,798.7c0,8.6-2.3,16.1-6.8,22.1c-4.6,6.2-10,9.2-16.6,9.2H541v-11h8.3c4.2,0,8-2,11-6.2s4.6-8.9,4.6-14.8
				s-1.4-10.6-4.6-14.8c-2.9-4-6.6-6.2-11-6.2H544v-10h5.4c6.5,0,12,3.1,16.6,9.4C570.4,782.7,572.7,790.1,572.7,798.7z M572,763
				h-28v-10h28V763z"/>
			<path d="M588,830h-0.8c-2.8,0-5.2-1.3-7.2-4c-2-2.7-3-6-3-9.8V749h8v67.6c0,2.4,0.8,3.4,2.5,3.4h0.5v9l0,0V830z"/>
			<path d="M600.9,816c0,3.9-0.9,7.2-3,9.9c-2,2.7-4.5,4.1-7.3,4.1H587v-10h3.4c1.6,0,2.6-1.1,2.6-3.4V768h8v48H600.9z M595.8,839.7
				c0,1.5-0.3,2.5-1.1,3.6s-1.6,1.5-2.7,1.5c-0.9,0-1.9-0.5-2.5-1.5c-0.8-0.9-1.1-2.2-1.1-3.6c0-1.3,0.3-2.5,1.1-3.4
				s1.6-1.5,2.5-1.5s1.9,0.5,2.7,1.5C595.5,837.2,595.8,838.3,595.8,839.7z M604.8,839.7c0,1.5-0.3,2.5-1.1,3.6
				c-0.8,0.9-1.6,1.5-2.7,1.5c-0.9,0-1.9-0.5-2.5-1.5c-0.8-0.9-1.1-2.2-1.1-3.6c0-1.3,0.3-2.5,1.1-3.4s1.6-1.5,2.5-1.5
				s1.9,0.5,2.7,1.5C604.4,837.2,604.8,838.3,604.8,839.7z"/>
			<path d="M631,815.8c-0.3,3.8-1.2,7.1-3.3,9.8c-1.9,2.7-7,4.4-7,4.4H609v-10h11.4c1.7,0,2.6-1.3,2.6-3.7v-16.6
				c0-5.6-1.4-10.4-4-14.3c-2.6-4.1-5.9-6-10-6v-11.8c6.2,0,11.4,3.1,15.8,9.2c4.1,5.9,6.2,13.2,6.2,21.7V815.8L631,815.8z"/>
			<path d="M718,812.4c0,4.7-0.9,8.7-2.7,11.8c-1.9,3.4-4.5,5.3-8,5.3c-3,0-5-0.5-6.1-1.8c-1.4,1.3-3.4,1.8-6.1,1.8
				c-2.8,0-4.7-0.7-5.9-2c-4.4,10.7-11,16-19.4,16c-6.3,0-11.6-3.1-16.1-9.1s-6.6-13.4-6.6-22V767h8v45.9
				c-0.2,5.6,1.2,10.5,4.2,14.3c2.8,4,6.4,6,10.5,6c4.4,0,8-2.2,10.8-6.5c2.7-4.2,4.1-9.3,4.5-15.4V767h7v46.9
				c0.4,3.8,1.2,5.6,2.9,5.6c1.3,0,1.9-0.5,2.2-1.5c0.2-0.5,0.3-2-0.1-4.2V768h8v45.8c0.2,2.2,0.4,3.4,0.5,4.2
				c0.3,0.9,0.9,1.5,2,1.5c1.3,0,2-0.5,2.3-1.6c0.2-0.4,0.2-1.8,0.2-4V768h7l1,44.9V812.4z"/>
			<path d="M733.9,831c0,8.3-2.3,15.4-6.8,21l-5.9-7.1c3.2-4,4.8-9.4,4.8-16.2V767h8v64H733.9z"/>
			<path d="M750,830h-0.8c-2.8,0-5.2-1.3-7.2-4c-2-2.7-3-6-3-9.8V749h7v67.6c0,2.4,0.8,3.4,2.5,3.4h0.5v9h1V830z"/>
			<path d="M761.9,816c0,3.9-0.9,7.2-3,9.9c-2,2.7-4.5,4.1-7.3,4.1H748v-10h3.4c1.6,0,2.6-1.1,2.6-3.4V768h8v48H761.9z M757.5,839.6
				c0,1.5-0.3,2.5-1.1,3.6c-0.8,0.9-1.6,1.5-2.7,1.5c-0.9,0-1.9-0.5-2.5-1.5c-0.8-0.9-1.1-2.2-1.1-3.6c0-1.3,0.3-2.5,1.1-3.4
				s1.6-1.5,2.5-1.5s1.9,0.5,2.7,1.5C757.2,837,757.5,838.3,757.5,839.6z M761.9,849.4c0,1.5-0.3,2.5-1.1,3.6s-1.6,1.5-2.7,1.5
				c-0.9,0-1.9-0.5-2.5-1.5c-0.8-0.9-1.1-2.2-1.1-3.6c0-1.3,0.3-2.5,1.1-3.4s1.6-1.5,2.5-1.5s1.9,0.5,2.7,1.5
				S761.9,847.9,761.9,849.4z M766.4,839.6c0,1.5-0.3,2.5-1.1,3.6s-1.6,1.5-2.7,1.5c-0.9,0-1.9-0.5-2.5-1.5
				c-0.6-0.9-1.1-2.2-1.1-3.6c0-1.3,0.3-2.5,1.1-3.4s1.6-1.5,2.5-1.5s1.9,0.5,2.7,1.5S766.4,838.3,766.4,839.6z"/>
			<path d="M827,813.1c0,8.9-2.5,16.3-7.4,22.3c-4.4,5.4-9.6,8.2-15.6,8.2c-6.3,0-11.7-3.1-16.2-9.1s-6.7-13.2-6.7-22V767h8v45.6
				c0,5.6,1.4,10.5,4.4,14.3c3,4,6.4,6,10.6,6c4.5,0,8.3-2.2,11-6.4c2.7-4,3.9-9.3,3.9-15.6V767h8V813.1L827,813.1L827,813.1z
				 M808.5,757.7c0,1.5-0.3,2.5-1.1,3.4c-0.8,0.9-1.6,1.5-2.7,1.5c-0.9,0-1.9-0.5-2.5-1.5c-0.8-0.9-1.1-2.2-1.1-3.4
				c0-1.5,0.3-2.5,1.1-3.6c0.8-0.9,1.6-1.5,2.5-1.5s1.9,0.5,2.7,1.5C808,755.2,808.5,756.4,808.5,757.7z"/>
			<path d="M840,830h-8v-81h8V830z"/>
			<path d="M875,831.2c-0.2,8.3-2.4,15.4-6.8,21.1l-5.8-7.1c3.1-4,4.5-9.3,4.5-15.6c-6.1,0-11.4-3.1-15.6-9.3
				c-4.4-6.2-6.4-13.4-6.4-22c0-8.5,2.2-16,6.6-22.1c4.4-6.2,9.7-9.3,16-9.2h6.5v64h1V831.2z M867,819.4v-41.6c-3.8,0-7,2.2-10,6.5
				c-3,4.4-4.4,9.1-4.4,14.3c0,5.6,1.4,10.5,4.1,14.5C859.3,817.2,862.9,819.4,867,819.4z"/>
			<path d="M891,830h-0.8c-2.8,0-5.2-1.3-7.2-4c-2-2.7-3-6-3-9.8V749h8v67.6c0,2.4,0.8,3.4,2.5,3.4h0.5v9l0,0V830z"/>
			<path d="M920.7,798.7c0,8.6-2.3,16.1-6.8,22.1s-10,9.2-16.6,9.2H889v-11h8.3c4.2,0,8-2,11-6.2c3.1-4.2,4.6-8.9,4.6-14.8
				s-1.4-10.6-4.6-14.8c-2.9-4-6.6-6.2-11-6.2H892v-10h5.4c6.5,0,12,3.1,16.6,9.4C918.4,782.7,920.7,790.1,920.7,798.7z M920,763
				h-28v-10h28V763z"/>
			<path d="M956,815.2c0,3.7-1.1,6.9-3,9.6c-2,2.6-4.4,4.1-7,4.1c-2.7,0-5.1-1.3-7-3.9c-2-2.6-2.9-5.9-2.9-9.6v-33.9
				c0-3.9,0.9-7.1,2.9-9.8c2-2.6,4.3-3.9,7-3.9c2.7,0,5.1,1.3,7,3.9c2,2.6,3,5.7,3,9.4V815.2z M949,815.2v-33c0-2.7-0.8-4-2.5-4
				c-1.6,0-2.5,1.3-2.5,4v32.9c0,2.9,0.8,4.2,2.3,4.2C948.2,819.4,949,818,949,815.2z"/>
			<path d="M983.9,816c0,3.8-0.9,7.1-3,9.8c-1.9,2.7-4.3,4.2-6.9,4.2h-12v-10h11.4c1.7,0,2.6-1.3,2.6-3.7v-16.6
				c0-5.6-1.4-10.4-4-14.3c-2.6-4.1-5.9-6-10-6v-11.8c6.2,0,11.4,3.1,15.8,9.3c4.1,6,6.2,13.4,6.2,22L983.9,816L983.9,816z"/>
			<path d="M996,830h-8v-81h8V830z"/>
			<path d="M1024,815.8c-0.3,3.8-1.2,7.1-3.3,9.8c-1.9,2.7-7,4.4-7,4.4H1002v-10h11.4c1.7,0,2.6-1.3,2.6-3.7v-16.6
				c0-5.6-1.4-10.4-4-14.3c-2.6-4.1-5.9-6-10-6v-11.8c6.2,0,11.4,3.1,15.8,9.2c4.1,5.9,6.2,13.2,6.2,21.7V815.8L1024,815.8z"/>
		</g>
	</g>
	<g>
		<line class="st3" x1="611" y1="883.5" x2="1024" y2="883.5"/>
	</g>
	<g>
		<line class="st3" x1="608" y1="714.5" x2="1021" y2="714.5"/>
	</g>
</g>
</svg>
